# xmcd
#
# Track frame offsets:
#	182
#	12250
#	24065
#	35292
#	46590
#	58350
#	71437
#	83232
#	97275
#	108775
#	122522
#	134050
#	143930
#	154097
#	165660
#	178535
#	188547
#	202072
#	214820
#	227370
#	238447
#	249150
#	269160
#	279812
#	290462
#	303507
#
# Disc length: 4200 seconds
#
# Revision: 2
# Processed by: cddbd v1.5.2PL0 Copyright (c) Steve Scherf et al.
# Submitted via: EZCDAudioConverter 8.0.2.1
#
DISCID=7010661a
DTITLE=Various Artist - Country Stars - 125 Great Country Hits
DYEAR=1994
DGENRE=Pop/Country
TTITLE0=Conway Twitty - To See My Angel Cry
TTITLE1=Hank Williams - Long Gone Lonesome Blues
TTITLE2=Buck Owens - Crying Time
TTITLE3=Patsy Cline - The Hart You Break May Be Your Own
TTITLE4=Johnny Cash - Home Of The Blues
TTITLE5=Freddy Fender - Wasted Days And Wasted Nights
TTITLE6=Bobby Bare - Come Sundown (She'll Be Gone)
TTITLE7=Lynn Anderson - Cry
TTITLE8=Merle Haggard - Sing A Sad Song
TTITLE9=George Jones - A Good Year For The Roses
TTITLE10=Ronnie Milsap - The End Of The World
TTITLE11=Kenny Rogers - Once Again She's All Alone
TTITLE12=Dolly Parton - Release Me
TTITLE13=Willie Nelson - Some Other Time
TTITLE14=Overstreet, Tommy - If I Miss You Again Tonight
TTITLE15=Webb Pierce - Missing You
TTITLE16=Kitty Wells - Making Believe
TTITLE17=Johnny Tillotson - It Keeps Right On A-Hurtin'
TTITLE18=Billy Walker - She Goes Walking Through My Mind
TTITLE19=Anne Murray - The Last Thing On My Mind
TTITLE20=Don Williams and The Pozo Seco Singers - (There's) Always Something The
TTITLE20=re To Remind Me
TTITLE21=Charlie Rich - You Don't Know Me
TTITLE22=Billie Jo Spears - I'm So Lonesome I Could Cry
TTITLE23=Faron Young - Life Is A Picture
TTITLE24=Jerry Lee Lewis - You Win Again
TTITLE25=Don Gibson - I Can't Stop Loving You
EXTD=
EXTT0=
EXTT1=
EXTT2=
EXTT3=
EXTT4=
EXTT5=
EXTT6=
EXTT7=
EXTT8=
EXTT9=
EXTT10=
EXTT11=
EXTT12=
EXTT13=
EXTT14=
EXTT15=
EXTT16=
EXTT17=
EXTT18=
EXTT19=
EXTT20=
EXTT21=
EXTT22=
EXTT23=
EXTT24=
EXTT25=
PLAYORDER=
